<svg xmlns="http://www.w3.org/2000/svg">
<defs>
<clipPath id="a3n9a"><path d="M0 34V0h38v34zM26.912 2C23.523 2 20.562 3.947 19 6.827 17.438 3.947 14.476 2 11.087 2 6.077 2 2 6.258 2 11.49c0 2.76.898 5.567 2.67 8.342 1.375 2.155 3.281 4.3 5.665 6.374 4.015 3.494 7.973 5.577 8.14 5.664a1.133 1.133 0 0 0 1.05 0c.167-.087 4.125-2.17 8.14-5.664 2.384-2.075 4.29-4.219 5.665-6.374C35.102 17.057 36 14.25 36 11.491 36 6.258 31.923 2 26.912 2z"/></clipPath>
</defs>
<symbol id="audiobook" viewBox="0 0 28 27"><g><g><path fill="#393232" d="M27.333 18.685v3c0 1.41-1.139 2.586-2.639 2.837v.282c0 1.211-1.091 2.196-2.433 2.196-1.342 0-2.433-.985-2.433-2.196V15.55c0-1.21 1.091-2.196 2.433-2.196.627 0 1.2.216 1.631.568-.2-5.4-4.56-9.732-9.892-9.732s-9.692 4.331-9.892 9.732a2.575 2.575 0 0 1 1.63-.568c1.342 0 2.434.985 2.434 2.196v9.254C8.172 26.015 7.08 27 5.739 27c-1.342 0-2.434-.985-2.434-2.196v-.282c-1.5-.25-2.638-1.427-2.638-2.837v-3A14.594 14.594 0 0 1 0 14.31C0 6.42 6.28 0 14 0s14 6.42 14 14.31c0 1.495-.225 2.966-.667 4.375zM3.305 23.221v-6.088c-.805.206-1.39.817-1.39 1.536v3.016c0 .72.585 1.33 1.39 1.536zm1.249 1.583c0 .499.542.92 1.185.92.642 0 1.184-.421 1.184-.92V15.55c0-.498-.542-.92-1.184-.92-.643 0-1.185.422-1.185.92zm20.595-10.493c0 .534-.038 1.07-.11 1.597a3.303 3.303 0 0 1 1.485.855c.15-.804.227-1.624.227-2.452 0-7.188-5.72-13.035-12.751-13.035S1.248 7.123 1.248 14.31c0 .828.078 1.648.227 2.452a3.303 3.303 0 0 1 1.486-.855 11.763 11.763 0 0 1-.11-1.597C2.851 8.027 7.852 2.914 14 2.914c6.147 0 11.149 5.113 11.149 11.397zm-1.703 1.239c0-.498-.543-.92-1.185-.92s-1.185.422-1.185.92v9.255c0 .498.543.92 1.185.92s1.185-.422 1.185-.92zm2.639 3.12c0-.72-.586-1.331-1.39-1.537v6.089c.804-.206 1.39-.817 1.39-1.537z"/></g></g></symbol>
<symbol id="book" viewBox="0 0 35 25"><g><g><path fill="#393232" d="M35 2.755v21.572a.68.68 0 0 1-1.018.58c-.04-.06-6.825-3.747-16.323-1.35a.687.687 0 0 1-.162 0h-.163C7.863 21.18 1.079 24.874 1.01 24.908A.677.677 0 0 1 0 24.32V2.749c-.001-.373.303-.676.677-.676h2.287v-.776A.676.676 0 0 1 3.453.62 19.195 19.195 0 0 1 8.345 0c2.706 0 6.431.58 9.145 3.377C20.224.606 23.92-.001 26.635-.001c1.65-.004 3.295.205 4.891.621.3.087.501.366.489.676v.783h2.306c.375 0 .679.302.679.676zM13.792 21.578A17.67 17.67 0 0 0 8 20.708c-1.42.01-2.837.123-4.24.337a.677.677 0 0 1-.78-.676V3.43H1.356v19.818a25.041 25.041 0 0 1 12.435-1.669zm3.026-.06l-.02-16.825c-2.429-2.729-5.93-3.31-8.467-3.31a18.791 18.791 0 0 0-4.023.446V19.6a30.003 30.003 0 0 1 3.69-.236c4.655 0 7.409 1.236 8.82 2.155zm1.357-.007c1.431-.919 4.193-2.155 8.82-2.155 1.227.006 2.453.087 3.67.243V1.83a18.869 18.869 0 0 0-4.023-.446c-2.538 0-6.038.608-8.467 3.31zM33.663 3.43h-1.621v16.933a.678.678 0 0 1-.78.675 29.81 29.81 0 0 0-4.268-.33 17.714 17.714 0 0 0-5.82.87c4.229-.512 8.52.062 12.462 1.669z"/></g></g></symbol>
<symbol id="ebook" viewBox="0 0 21 28"><g><g><path fill="#393232" d="M17.798 28H3.202C1.435 28 0 26.587 0 24.849V3.15C0 1.413 1.435 0 3.202 0h14.596C19.565 0 21 1.413 21 3.151V24.85C21 26.587 19.565 28 17.798 28zM3.202 26.599h14.596c.982 0 1.778-.784 1.778-1.75V3.15c0-.966-.796-1.75-1.778-1.75H3.202c-.982 0-1.778.784-1.778 1.75V24.85c0 .966.796 1.75 1.778 1.75zm14.608-3.294c0 .389-.32.703-.715.703H3.905a.709.709 0 0 1-.715-.703V4.695c0-.389.32-.703.715-.703h13.19c.395 0 .715.314.715.703zm-1.43-.698V5.393H4.614v17.214zM6.351 10.351c0-.389.32-.703.715-.703h6.868c.395 0 .715.314.715.703 0 .39-.32.704-.715.704H7.066a.709.709 0 0 1-.715-.704zm0 3.649c0-.389.32-.704.715-.704h6.868c.395 0 .715.315.715.704 0 .389-.32.703-.715.703H7.066A.709.709 0 0 1 6.35 14zm0 3.643c0-.389.32-.704.715-.704h4.811c.395 0 .715.315.715.704 0 .389-.32.703-.715.703H7.066a.709.709 0 0 1-.715-.703z"/></g></g></symbol>
<symbol id="fb" viewBox="0 0 10 18"><g><g><path fill="#f2f2f2" d="M9.623.003L7.225-.001c-2.695 0-4.436 1.739-4.436 4.43V6.47H.377A.372.372 0 0 0 0 6.838v2.96c0 .203.169.366.377.366H2.79v7.468c0 .203.168.367.377.367h3.146a.372.372 0 0 0 .377-.367v-7.468h2.82a.372.372 0 0 0 .377-.366l.001-2.96c0-.097-.04-.19-.11-.259a.384.384 0 0 0-.267-.108H6.69V4.74c0-.833.203-1.255 1.317-1.255l1.616-.001A.372.372 0 0 0 10 3.118V.369a.372.372 0 0 0-.377-.366z"/></g></g></symbol>
<symbol id="rectangle_black" viewBox="0 0 8 4"><g><g><path fill="#393232" d="M8 0L4 4 0 0z"/></g></g></symbol>
<symbol id="rectangle_white" viewBox="0 0 8 4"><g><g><path fill="#fff" d="M8 0L4 4 0 0z"/></g></g></symbol>
<symbol id="search" viewBox="0 0 20 21"><g><g><path fill="#393232" d="M19.657 20.69a1.077 1.077 0 0 1-1.541-.03l-4.967-5.238a8.191 8.191 0 0 1-4.79 1.534c-4.61 0-8.361-3.803-8.361-8.479C-.002 3.803 3.748 0 8.359 0c4.61 0 8.361 3.804 8.361 8.478a8.524 8.524 0 0 1-1.961 5.451l4.929 5.198c.416.44.403 1.141-.03 1.564zM2.18 8.477c0 3.456 2.772 6.267 6.18 6.267s6.18-2.811 6.18-6.267c0-3.455-2.772-6.266-6.18-6.266S2.18 5.022 2.18 8.477z"/></g></g></symbol>
<symbol id="back" viewBox="0 0 32.635 32.635"> <g> <path d="M32.135,16.817H0.5c-0.276,0-0.5-0.224-0.5-0.5s0.224-0.5,0.5-0.5h31.635c0.276,0,0.5,0.224,0.5,0.5
		S32.411,16.817,32.135,16.817z"/> <path d="M13.037,29.353c-0.128,0-0.256-0.049-0.354-0.146L0.146,16.669C0.053,16.575,0,16.448,0,16.315s0.053-0.26,0.146-0.354
		L12.684,3.429c0.195-0.195,0.512-0.195,0.707,0s0.195,0.512,0,0.707L1.207,16.315l12.184,12.184c0.195,0.195,0.195,0.512,0,0.707
		C13.293,29.304,13.165,29.353,13.037,29.353z"/> </g>                </symbol>
<symbol id="favorite" viewBox="0 0 28 25"><g><g><path d="M20.516 0c-2.79 0-5.23 1.623-6.516 4.022C12.714 1.622 10.274 0 7.484 0 3.357 0 0 3.548 0 7.91c0 2.3.74 4.639 2.199 6.951 1.132 1.796 2.702 3.583 4.665 5.312 3.307 2.911 6.566 4.647 6.703 4.72a.924.924 0 0 0 .866 0c.137-.073 3.396-1.809 6.702-4.72 1.964-1.73 3.533-3.516 4.666-5.312C27.261 12.548 28 10.21 28 7.91 28 3.548 24.643 0 20.516 0z"/></g></g></symbol>
<symbol id="favorite_book" viewBox="0 0 38 34"><g><g><path fill="#fff" d="M26.912 2C23.523 2 20.562 3.947 19 6.827 17.438 3.947 14.476 2 11.087 2 6.077 2 2 6.258 2 11.49c0 2.76.898 5.567 2.67 8.342 1.375 2.155 3.281 4.3 5.665 6.374 4.015 3.494 7.973 5.577 8.14 5.664a1.133 1.133 0 0 0 1.05 0c.167-.087 4.125-2.17 8.14-5.664 2.384-2.075 4.29-4.219 5.665-6.374C35.102 17.057 36 14.25 36 11.491 36 6.258 31.923 2 26.912 2z"/><path fill="none" stroke="#393232" stroke-linecap="round" stroke-linejoin="round" stroke-miterlimit="50" stroke-width="4" d="M26.912 2C23.523 2 20.562 3.947 19 6.827 17.438 3.947 14.476 2 11.087 2 6.077 2 2 6.258 2 11.49c0 2.76.898 5.567 2.67 8.342 1.375 2.155 3.281 4.3 5.665 6.374 4.015 3.494 7.973 5.577 8.14 5.664a1.133 1.133 0 0 0 1.05 0c.167-.087 4.125-2.17 8.14-5.664 2.384-2.075 4.29-4.219 5.665-6.374C35.102 17.057 36 14.25 36 11.491 36 6.258 31.923 2 26.912 2z" clip-path="url(&quot;#a3n9a&quot;)"/></g></g></symbol>
<symbol id="hamburger" viewBox="0 0 50 50"><path fill-rule="evenodd" d="M3 41.2h44V36H3zm0-13.6h44v-5.2H3zM3 8.8V14h44V8.8z"/></symbol>
<symbol id="insta" viewBox="0 0 20 20"><g><g><path fill="#f2f2f2" d="M20 6.249v7.5a6.25 6.25 0 0 1-6.25 6.25h-7.5A6.25 6.25 0 0 1 0 13.749v-7.5a6.25 6.25 0 0 1 6.25-6.25h7.5A6.25 6.25 0 0 1 20 6.25zm-1.875 0a4.38 4.38 0 0 0-4.375-4.375h-7.5a4.38 4.38 0 0 0-4.375 4.375v7.5a4.38 4.38 0 0 0 4.375 4.375h7.5a4.38 4.38 0 0 0 4.375-4.375zM15 9.999a5 5 0 1 1-10 0 5 5 0 0 1 10 0zm-1.875 0A3.13 3.13 0 0 0 10 6.873 3.13 3.13 0 0 0 6.875 10 3.13 3.13 0 0 0 10 13.124a3.13 3.13 0 0 0 3.125-3.125zm2.25-6.041a.666.666 0 1 1 0 1.332.666.666 0 0 1 0-1.332z"/></g></g></symbol>
<symbol id="library" viewBox="0 0 26 20"><g><g><path fill="#fff" d="M25.832 7.02l-1.217.29c.35.392.651 1.06.584 2.199-.096 1.655-.713 2.293-1.124 2.537l.616.183c.326.357-.089.622-.69.811-.01.01-.02.023-.034.03-.735.453-.72 1.794-.614 2.572 2.637.737 1.69.978 1.69.978L10.878 20l-9.384-3.005s-1.35-.173-1.496-2.686c-.076-1.303.329-1.99.735-2.352l-.578-.137s-.946-.24 1.69-.978c.106-.78.12-2.12-.614-2.572-.013-.008-.023-.02-.034-.03-.6-.189-1.016-.454-.69-.812l1.177-.35c-.38-.33-.816-1.002-.896-2.37-.147-2.513 1.496-2.744 1.496-2.744L16.624 0l8.857 2.629c.325.357-.09.623-.69.812-.012.01-.021.022-.035.03-.734.45-.719 1.792-.614 2.57 2.637.738 1.69.979 1.69.979zM12.194 9.069l10.16-2.49 1.313-.322a6.372 6.372 0 0 1-.046-.358c-.063-.608-.079-1.553.304-2.244l-1.199.243-8.05 1.63-2.382.481zm-9.828 1.63c-.014.138-.03.263-.045.359l1.03.252 10.441 2.56-.1-3.06-2.025-.41-.675-.136-7.73-1.566-1.2-.243c.384.69.367 1.637.304 2.244zm.163-4.158c.017.001.04.005.057.009l.456.126 8.649 2.388.1-3.08-3.082-.99-6.18-1.985C2.528 3.01 2.48 3 2.413 3a.642.642 0 0 0-.465.19c-.244.246-.365.729-.35 1.398.04 1.873.896 1.951.932 1.953zM11 15.585L1.74 12.61c-.004 0-.051-.01-.118-.01a.644.644 0 0 0-.465.19c-.244.246-.366.73-.35 1.398.04 1.874.896 1.951.932 1.954.018 0 .04.004.057.009l9.105 2.514zm12.134-2.33l-1.2.243-6.258 1.267-1.358.435-.362-.086-2.453.496-.1 3.06 11.473-2.812a6.95 6.95 0 0 1-.046-.359c-.063-.607-.08-1.553.304-2.244zm1.257-3.867c.015-.669-.107-1.152-.35-1.398-.253-.253-.596-.177-.597-.177L16.9 9.916l-2.703.869.1 3.08 8.24-2.276.864-.238a.227.227 0 0 1 .062-.01c.031-.002.887-.08.929-1.953z"/></g></g></symbol>
<symbol id="next" viewBox="0 0 32.635 32.635"> <g> <path d="M32.135,16.817H0.5c-0.276,0-0.5-0.224-0.5-0.5s0.224-0.5,0.5-0.5h31.635c0.276,0,0.5,0.224,0.5,0.5
		S32.411,16.817,32.135,16.817z"/> <path d="M19.598,29.353c-0.128,0-0.256-0.049-0.354-0.146c-0.195-0.195-0.195-0.512,0-0.707l12.184-12.184L19.244,4.136
		c-0.195-0.195-0.195-0.512,0-0.707s0.512-0.195,0.707,0l12.537,12.533c0.094,0.094,0.146,0.221,0.146,0.354
		s-0.053,0.26-0.146,0.354L19.951,29.206C19.854,29.304,19.726,29.353,19.598,29.353z"/> </g>                </symbol>
<symbol id="twtr" viewBox="0 0 20 16"><g><g><path fill="#f2f2f2" d="M20 1.893a8.648 8.648 0 0 1-2.363.638A4.026 4.026 0 0 0 19.441.3a8.294 8.294 0 0 1-2.6.977 4.138 4.138 0 0 0-2.995-1.278c-2.27 0-4.097 1.814-4.097 4.038 0 .32.027.628.095.92A11.667 11.667 0 0 1 1.392.736a4.018 4.018 0 0 0-.56 2.04c0 1.399.73 2.638 1.82 3.356A4.098 4.098 0 0 1 .8 5.633v.045c0 1.962 1.421 3.59 3.285 3.966-.334.09-.698.133-1.075.133-.263 0-.528-.015-.776-.069a4.132 4.132 0 0 0 3.83 2.813 8.321 8.321 0 0 1-5.083 1.721c-.336 0-.659-.014-.981-.055A11.674 11.674 0 0 0 6.29 16c7.545 0 11.67-6.154 11.67-11.488 0-.179-.006-.35-.015-.522A8.11 8.11 0 0 0 20 1.893z"/></g></g></symbol>
</svg>